<?xml version="1.0" encoding="UTF-8"?>
<svg id="Layer_2" data-name="Layer 2" xmlns="http://www.w3.org/2000/svg" viewBox="0 0 1406.54 1406.54">
  <defs>
    <style>
      .cls-1 {
        opacity: .72;
      }

      .cls-2, .cls-3, .cls-4, .cls-5, .cls-6 {
        stroke: #000;
        stroke-miterlimit: 10;
      }

      .cls-2, .cls-5 {
        stroke-linecap: round;
        stroke-width: 5px;
      }

      .cls-7 {
        letter-spacing: -.02em;
      }

      .cls-8 {
        font-family: AcierBATText-Noir, 'Acier BAT';
        font-size: 117.34px;
      }

      .cls-3 {
        fill: #faf3dd;
      }

      .cls-3, .cls-6 {
        stroke-width: 6px;
      }

      .cls-9 {
        fill: #262833;
      }

      .cls-10 {
        letter-spacing: -.02em;
      }

      .cls-5 {
        fill: none;
      }

      .cls-11 {
        opacity: .48;
      }

      .cls-12 {
        letter-spacing: -.03em;
      }

      .cls-13 {
        fill: #68b0ab;
      }

      .cls-14 {
        fill: #8fc0a9;
      }

      .cls-15 {
        opacity: .82;
      }

      .cls-16 {
        fill: #4a7c59;
      }

      .cls-17 {
        letter-spacing: -.05em;
      }

      .cls-18 {
        opacity: .71;
      }
    </style>
  </defs>
  <g id="Layer_2-2" data-name="Layer 2">
    <circle class="cls-14" cx="703.27" cy="703.27" r="703.27"/>
    <g class="cls-11">
      <path class="cls-4" d="m724.57,1134.36c-212.94-9.09-382.43-165.45-382.43-357,0-136.18,95.18-241.36,211.71-314.9,170.73-115.61,56.94-175.35,73.23-223.87,3.91-11.66,17.43-16.72,27.95-10.52,3.31,1.96,6.97,4.02,10.92,6.12,0,0-51.7-7.15-25.68,32.78,26.02,39.93,51.23,112.75-65.33,199.97-37.75,28.25-82.92,49.9-114.72,79.56-66.41,61.94-110.04,135.72-105.12,223.83,7.29,130.31,69.21,295.71,369.47,364.03Z"/>
      <path class="cls-4" d="m721.75,1136.44c271.64,12.74,438.69-148.67,438.69-340.65,0-136.49-56.8-258.56-190.46-332.27-195.84-115.88-117.7-159.1-136.39-207.73-4.49-11.68-9.32-18.65-22.44-22.06-125.3-32.47-177.25-5.2-181.79-3.1,0,0,158.49,79.64,128.65,119.66-29.84,40.02,37.67,38.45,171.38,125.86,43.3,28.31,59.13,58.52,95.6,88.25,76.18,62.08,126.23,136.03,120.58,224.34-8.36,130.6-94.41,311.46-423.82,347.7Z"/>
      <path class="cls-6" d="m724.57,1134.36c-300.26-68.31-362.18-233.72-369.47-364.03-4.92-88.11,38.7-161.89,105.12-223.83,31.8-29.65,76.97-51.31,114.72-79.56,116.56-87.22,91.35-160.04,65.33-199.97-26.02-39.93,25.68-32.78,25.68-32.78,24.56,13.06,60.7,27.62,96.94,25.44,0,0,.92,102.06,51.19,171.28,45.8,63.06,366.35,560.11-89.51,703.45Z"/>
      <path d="m1146.2,779.72c0,12.98-.77,25.8-2.3,38.42-11.8,98.27-68.42,184.63-151.31,242.62-68.38,47.85-154.66,76.38-248.41,76.38-6.57,0-13.11-.14-19.6-.42,151.07-47.51,216.87-133.86,235.66-230.39,25.94-133.26-37.73-285.93-90.32-382.54-13.61-25.01-26.49-46.27-36.87-62.46-8.12-12.67-14.73-22.23-18.97-28.07-6.48-8.92-12.14-18.38-17.07-28.1-33.43-65.72-34.12-143.18-34.12-143.18,10.42-.62,20.83-2.62,30.99-6.44,14.19-5.33,28.6,6.98,25.71,21.98-.75,3.92-1.4,7.97-1.88,12.14-2.57,21.79-1.09,46.77,9.32,72.38,4.86,11.99,11.69,24.11,20.96,36.12,16.67,21.58,41.26,42.77,76.69,62.06.45.23.91.45,1.37.68,1.72.77,3.43,1.56,5.14,2.37,9.77,4.57,19.31,9.5,28.59,14.75,48.18,27.27,89.39,63.42,120.72,105.84,41.54,56.25,65.7,123.56,65.7,195.87Z"/>
      <line class="cls-2" x1="724.57" y1="256.38" x2="724.57" y2="1132.23"/>
      <g class="cls-1">
        <path d="m750.46,388.04c-4.74,53.29-22.23,109.44-.04,158.02,8.6,18.81,20.84,35.64,31.82,53.15,81.24,129.51,171.3,339.26-57.67,535.14"/>
        <path d="m750.46,388.04c-1.42,26.92-6.58,56.1-7.79,83-2.13,27.2-.12,55.6,12.91,79.95,7.57,14.9,17.61,29.44,26.68,43.57,11.5,18.14,22.37,36.65,32.43,55.63,69.03,129.31,85.09,265.52-1.55,391.17-19.37,28.43-43.54,53.36-68.98,76.34-6.04,5.41-13.42,11.52-19.59,16.64,0,0,9.45-8.7,9.45-8.7,28.13-26.19,53.33-55.4,75-87.11,85.6-124.1,69.37-258.37,1.26-386.01-9.99-18.84-20.81-37.26-32.23-55.28-11.5-18.02-24.21-35.72-32.31-55.91-8.04-20.36-9.57-42.57-8.51-64.21,2.09-29.31,9.68-59.96,13.24-89.09h0Z"/>
      </g>
      <g class="cls-1">
        <path d="m738.93,592.98c-2.54,28.15-4.98,57.26,3.87,84.07,5.05,15.29,13.55,29.12,21.18,43.27,38.81,71.97,55.83,155.74,48.2,237.33-2.48,26.55-7.62,53.21-19.35,77.1-11.6,23.64-50.79,79.99-68.26,99.6"/>
        <path d="m738.93,592.98c-1.14,23.9-2.17,48.15,3.18,71.63,3.88,20.62,15.68,38.64,25.38,57.02,12.83,24.13,23.16,49.59,31.04,75.74,19.94,67.41,25.62,147.97,5.56,215.93-3.66,11.66-8.79,22.96-14.91,33.52-6.2,10.43-13.13,20.39-20.07,30.33-14.03,19.68-28.29,39.3-44.55,57.21,17-21.16,31.91-43.93,46.38-66.86,4.79-7.63,9.33-15.46,13.82-23.25,6.12-10.27,10.98-21.1,14.57-32.48,25.63-90.77,9.65-196.09-32.13-279.8-10.76-21.71-25.2-42.15-30.1-66.3-4.63-24.05-1.33-48.68,1.82-72.69h0Z"/>
      </g>
      <g class="cls-1">
        <path d="m732.38,770.55c5.02,24.47,12.39,48.53,22.72,71.24,21.79,47.9,30.01,79.1,25.67,118.29-4.58,41.4-33.56,131.3-56.2,166.13"/>
        <path d="m732.38,770.55c6.19,22.44,14.19,44.35,23.06,65.84,2.9,6.45,6.75,15.04,9.41,21.43,14,32.39,23.16,68.04,18.28,103.54-1.41,11.72-3.93,23.27-6.69,34.71-7.55,30.39-17.19,60.18-28.93,89.21-6.65,14.15-13.73,28.27-22.94,40.94,3.74-6.66,7.03-14.01,10-21.07,14.34-36.02,27.9-72.52,37.01-110.26,3.64-15.08,6.82-30.23,7.57-45.58,2.02-31-6.9-61.21-18.92-89.54-2.58-6.39-6.59-15.01-9.38-21.37-9.77-21.45-15.32-44.62-18.48-67.84h0Z"/>
      </g>
      <g class="cls-1">
        <path d="m716.92,793.95c-9.03,22.32-23.28,42.47-41.27,58.33-8.08,7.12-17.02,13.52-23.14,22.41-9.07,13.16-19.14,57.69-20.04,73.69-2.02,35.86,7.04,44.72,17.55,79.03,10.51,34.31,43.27,81.71,74.55,98.8"/>
        <path d="m716.92,793.95c-6.55,19.12-16.77,37.82-31.31,52.29-2.86,2.96-5.89,5.76-8.97,8.49-9.04,8-18.94,14.68-24.4,25.43-5.11,10.77-8.25,22.49-11.17,34.08-3.19,13.61-6.28,27.42-6.34,41.42-.15,9.9.73,19.86,3.45,29.38,2.1,7.63,5.08,15.14,7.85,22.79,2.82,7.52,5.28,15.52,7.78,23.08,10.9,30.15,30.17,56.82,52.08,79.99,5.7,5.71,11.86,10.97,18.69,15.31-7.34-3.5-14.17-8.12-20.5-13.3-19.27-15.44-33.54-36.14-45.07-57.78-3.78-7.28-7.2-14.77-9.91-22.58-2.59-7.83-4.88-15.35-7.76-23.01-5.82-15.17-11.53-31.21-11.57-47.77-.21-8.22.16-16.62,1.54-24.69,2.69-16.19,6.44-32.05,11.74-47.61,6.28-19.75,15.49-25.82,30.31-38.51,17.86-16.15,33-35.1,43.57-57.01h0Z"/>
      </g>
      <g class="cls-1">
        <path d="m705.84,562.27c-4.51,37.83-19.51,117.3-49.65,140.23-14.05,10.69-29.94,18.61-44.84,28.06-33.42,21.2-62.2,50.76-79.19,86.73-16.99,35.97-21.49,78.52-8.82,116.26,14.58,43.42,49.37,76.27,82.88,107.2,24.91,22.99,93.44,70.61,118.34,93.6"/>
        <path d="m705.84,562.27c-4.08,39.62-13.48,99.32-37.61,131.41-4.61,6.36-10.89,11.46-17.44,15.77-18.98,12.73-39.68,22.51-57.47,36.9-50.64,38.7-84.11,102.63-72.52,167.06,4.45,26.02,17.22,49.72,33.5,70.31,18.86,23.5,41.25,44.52,64.05,64.2,23.59,19.11,47.58,37.95,71.4,56.84,11.89,9.51,23.75,19.14,34.82,29.6-23.31-19.62-48.5-36.78-73.01-54.84-12.31-9-24.75-17.88-36.41-27.73-11.75-9.8-22.77-20.41-33.78-31.04-27.28-26.61-53.17-57.43-62.99-95.12-18.21-69.59,16.51-140.94,71.87-183.22,12-9.54,25.26-17.54,38.47-25.15,9.73-5.77,19.46-11.39,28.17-18.57,27.55-25.18,43.37-99.4,48.95-136.42h0Z"/>
      </g>
      <g class="cls-1">
        <path d="m694.91,414.09c-3.78,52.83-14.79,112.64-51.21,150.76-41.28,43.21-97.64,68.37-142.82,107.41-14.04,12.13-27.13,25.81-35.77,42.3-8.4,16.03-12.24,34.04-15.76,51.82-5.43,27.42-10.32,55.42-7.38,83.23,4.13,39.14,23.36,74.77,42.2,109.23,23.93,43.76,132.89,127.29,172.53,157.23"/>
        <path d="m694.91,414.09c-2.76,50.38-10.38,104.33-43.18,144.69-39.64,46.06-96.91,71.6-143.08,109.57-14.11,11.57-27.63,24.3-37.46,39.73-9.95,15.42-14.69,33.38-18.38,51.24-3.66,18.09-7.24,36.22-8.87,54.5-5.9,53.73,16.14,97.24,41.33,142.87,6.55,12.07,15.71,22.4,25.01,32.48,12.61,13.42,26.19,25.94,39.73,38.44,34.21,31.06,70.26,60.01,106.69,88.46-29.85-21.84-59.26-44.31-87.83-67.87-28.46-23.74-57-48.02-79.54-77.68-4.85-6.33-10.33-16.99-14.19-24.12-17.52-32.57-33.99-67.34-35.79-104.94-1.47-27.97,4.09-55.75,9.56-82.95,5.8-29.74,14.71-52.65,36.51-74.48,32.79-33.11,74.42-55.53,111.73-82.39,29.68-21.22,58.52-45.92,72.66-80.45,15.24-33.67,21.61-70.51,25.12-107.1h0Z"/>
      </g>
      <path d="m1080.5,581.49c-31.33-42.42-72.54-78.57-120.72-105.84-11.03,3.42-23.38,7.03-25.47,8.53-9.61,6.94-8.4,9.88-3.78,15.29,9.44,11.04,49.96,20.15,35.94,28.65-17.13,10.37-69.17,6.64-96.56-6.68,52.6,96.61,116.26,249.28,90.32,382.54,40.33-20.51,65.1-72.45,54.59-118.46-12.54-54.83,41.77-80.15,29.23-109.66-12.52-29.53-4.18-67.49,4.18-75.94,7.27-7.33-20.26-27.46-16.51-43.68.41-1.78,19.12,32.66,35.02,40.64,5.57,2.81,8.33-.27,13.24-5.73,1.08-1.19,1.09-4.78.52-9.66Zm-154.44-122.95c-.46-.23-.92-.45-1.37-.68-35.42-19.28-60.01-40.48-76.69-62.06-2.46,1.07-5.33,1.66-8.64,1.66-16.5,0-33.01-1.83-42.35,5.35,4.93,9.72,10.59,19.18,17.07,28.1,4.24,5.84,10.84,15.4,18.97,28.07,6.01.29,11.68.52,14.24-1.54,2.98-2.39,21.04,11.5,24.6,22.93.55,1.78-8.1,9.92-7.57,11.46,1.63,4.73,13.92,2.27,15.13,1.91,6.29-1.84,7.35-9.27,13.25-7.65,7.02,1.94-18.18-26.92-13.25-34.38,7.11-10.79,25.75,33.5,37.84,32.46,3.66-.31,8.87-11.84,13.91-23.28-1.7-.8-3.41-1.59-5.14-2.37Zm-108.34-171.23c-1.11.07-2.24.24-3.42.47-20.89,4.22-25.07,67.49-8.35,80.15,7.14,5.4,14.29-.74,21.1-8.24-10.42-25.61-11.89-50.58-9.32-72.38Z"/>
      <path d="m1144.55,812.63c-11.8,98.27-61.48,186.44-148.35,245.58-13.02-25.74-9.44-72.39,10.01-81.33,25.29-11.63,43.61-28.36,46.69-47.56,3.08-19.22,37.21-37.29,51.72-54.62,14.49-17.34,6.15-38.43,28.89-58.35,5.13-4.5,8.65-5.24,11.04-3.71Z"/>
    </g>
    <g>
      <path class="cls-4" d="m677.05,1115.19c-208.95-8.83-375.27-160.79-375.27-346.95,0-132.35,93.4-234.57,207.74-306.04,167.53-112.36,55.87-170.41,71.86-217.57,3.84-11.33,17.1-16.25,27.43-10.22,3.25,1.9,6.84,3.91,10.72,5.95,0,0-50.73-6.95-25.2,31.86,25.53,38.81,50.27,109.58-64.11,194.34-37.04,27.45-81.37,48.5-112.57,77.32-65.17,60.2-107.98,131.9-103.15,217.53,7.15,126.64,67.91,287.39,362.55,353.78Z"/>
      <path class="cls-4" d="m674.29,1117.21c266.55,12.38,430.47-144.48,430.47-331.07,0-132.65-55.74-251.28-186.89-322.92-192.17-112.62-115.49-154.62-133.83-201.89-4.4-11.36-9.14-18.13-22.02-21.43-122.95-31.56-173.93-5.06-178.38-3.01,0,0,155.52,77.4,126.24,116.29-29.29,38.9,36.96,37.37,168.17,122.32,42.49,27.51,58.02,56.88,93.81,85.76,74.76,60.34,123.86,132.2,118.32,218.02-8.2,126.93-92.64,302.7-415.88,337.91Z"/>
      <path class="cls-3" d="m677.05,1115.19c-294.64-66.39-355.4-227.14-362.55-353.78-4.83-85.63,37.98-157.33,103.15-217.53,31.2-28.82,75.53-49.87,112.57-77.32,114.38-84.76,89.64-155.53,64.11-194.34-25.53-38.81,25.2-31.86,25.2-31.86,24.1,12.69,59.56,26.84,95.12,24.72,0,0,.9,99.19,50.23,166.46,44.94,61.28,359.49,544.34-87.83,683.65Z"/>
      <path class="cls-13" d="m1090.78,770.54c0,12.61-.76,25.07-2.26,37.34-11.58,95.5-67.14,179.43-148.48,235.79-67.1,46.5-151.76,74.23-243.76,74.23-6.45,0-12.86-.14-19.23-.41,148.24-46.17,212.81-130.09,231.25-223.9,25.45-129.51-37.02-277.88-88.63-371.77-13.36-24.31-25.99-44.97-36.18-60.7-7.97-12.31-14.45-21.6-18.61-27.28-6.36-8.67-11.91-17.86-16.75-27.31-32.8-63.87-33.48-139.15-33.48-139.15,10.22-.6,20.44-2.55,30.41-6.26,13.92-5.18,28.06,6.78,25.23,21.36-.74,3.81-1.37,7.75-1.84,11.8-2.52,21.18-1.07,45.45,9.15,70.34,4.77,11.65,11.47,23.43,20.57,35.1,16.36,20.97,40.49,41.57,75.25,60.31.44.22.89.44,1.34.66,1.69.75,3.37,1.52,5.04,2.3,9.59,4.44,18.95,9.23,28.05,14.33,47.28,26.5,87.72,61.63,118.46,102.86,40.76,54.67,64.47,120.08,64.47,190.36Z"/>
      <line class="cls-5" x1="677.06" y1="261.92" x2="677.05" y2="1113.12"/>
      <g class="cls-1">
        <path d="m702.46,389.88c-1.37,26.2-6.44,54.6-7.6,80.79-1.65,22.36-.79,45.67,7.64,66.58,6.16,15.25,15.4,29.16,24.43,42.94,9.12,13.85,18.2,28.28,26.44,42.6,79.51,135.64,101.97,279.86,3.16,412.63-20.49,26.49-44.24,50.29-69.81,71.82,0,0-9.66,7.94-9.66,7.94l9.23-8.43c24.27-22.6,46.89-47.35,66.14-74.37,97.79-130.43,74.91-273.8-3.39-407.08-6.23-10.78-12.75-21.42-19.46-31.91-11.27-17.5-23.71-34.66-31.72-54.29-7.97-19.9-9.46-41.44-8.44-62.51,2.04-28.54,9.53-58.35,13.05-86.71h0Z"/>
      </g>
      <g class="cls-1">
        <path d="m691.15,589.05c-1.1,23.25-2.09,46.85,3.19,69.67,3.83,20.05,15.4,37.52,24.91,55.36,12.58,23.44,22.72,48.18,30.45,73.61,19.56,65.44,25.16,144.14,5.38,210.09-3.61,11.34-8.66,22.32-14.68,32.55-6.09,10.11-12.89,19.78-19.69,29.41-13.76,19.08-27.72,38.1-43.65,55.43,14.83-18.21,27.88-37.79,40.68-57.44,6.35-9.85,12.43-19.89,18.25-29.99,6.02-9.96,10.8-20.45,14.33-31.52,25.28-88.06,9.49-190.93-31.44-272.03-10.55-21.09-24.71-40.92-29.55-64.41-4.56-23.41-1.29-47.38,1.82-70.74h0Z"/>
      </g>
      <g class="cls-1">
        <path d="m684.72,761.63c6.1,21.8,13.98,43.08,22.67,63.96,2.84,6.26,6.62,14.6,9.23,20.82,13.73,31.46,22.75,66.17,17.95,100.71-1.39,11.41-3.86,22.64-6.58,33.76-7.41,29.55-16.88,58.5-28.4,86.71-6.54,13.73-13.5,27.44-22.53,39.71,3.66-6.47,6.87-13.61,9.78-20.47,14.02-35,27.35-70.45,36.3-107.14,3.58-14.66,6.7-29.38,7.43-44.31,1.98-30.15-6.78-59.5-18.56-87.01-2.53-6.2-6.46-14.58-9.2-20.75-9.59-20.83-15.02-43.38-18.09-65.97h0Z"/>
      </g>
      <g class="cls-1">
        <path d="m669.54,784.37c-6.42,18.61-16.44,36.82-30.68,50.86-2.8,2.88-5.77,5.59-8.78,8.23-8.84,7.76-18.51,14.2-23.91,24.62-5.04,10.45-8.12,21.86-11,33.13-3.14,13.25-6.18,26.69-6.24,40.32-.14,9.64.72,19.33,3.41,28.59,2.07,7.42,5,14.73,7.72,22.18,2.78,7.32,5.18,15.11,7.64,22.46,10.74,29.33,29.67,55.19,51.09,77.67,5.57,5.54,11.6,10.64,18.26,14.85-7.16-3.37-13.85-7.83-20.06-12.84-18.89-14.92-32.9-35.02-44.25-56.05-3.72-7.08-7.09-14.36-9.76-21.97-2.56-7.62-4.8-14.94-7.62-22.4-5.73-14.8-11.35-30.34-11.4-46.53-.21-8.02.15-16.21,1.51-24.07,2.65-15.77,6.34-31.23,11.56-46.37,6.15-19.14,15.35-25.14,29.76-37.37,17.46-15.66,32.33-34.01,42.73-55.31h0Z"/>
      </g>
      <g class="cls-1">
        <path d="m658.67,559.2c-3.99,38.6-13.25,96.97-37.09,128.04-4.55,6.17-10.76,11.05-17.16,15.23-18.58,12.3-38.79,21.78-56.2,35.73-52.62,39.8-86.22,107.25-68.63,173.21,5.68,21.27,16.98,40.5,30.68,57.67,13.78,17.27,29.91,32.68,46.18,47.66,5.47,5.06,10.89,9.94,16.63,14.59,23.1,18.52,46.56,36.81,69.88,55.13,11.64,9.23,23.23,18.57,34.08,28.72-11.32-9.62-23.36-18.31-35.32-27.09-23.9-17.65-48.77-34.08-71.82-52.88-11.55-9.53-22.3-19.78-33.11-30.09-26.75-25.82-52.24-55.69-62.04-92.41-18.13-67.92,16.19-137.47,70.39-178.46,11.74-9.25,24.71-17.01,37.63-24.39,9.53-5.58,19.03-11.04,27.59-17.95,27.2-24.33,42.75-96.59,48.29-132.72h0Z"/>
      </g>
      <g class="cls-1">
        <path d="m647.95,415.2c-2.82,53.37-11.96,111.99-51.87,151-44.9,44.9-105.9,69.38-150.75,113.96-12.59,12.6-22.66,27.53-28.13,44.56-2.85,8.42-4.92,17.14-6.76,25.93-3.61,17.63-7.13,35.3-8.73,53.12-5.79,52.34,16.06,94.79,40.76,139.1,6.49,11.69,15.49,21.71,24.61,31.48,18.72,19.41,38.82,37.45,59.23,55.11,27.34,23.47,55.6,45.89,84.14,67.95-36.5-26.47-72.46-53.81-106.77-83.12-13.79-11.72-27.04-24.05-39.5-37.2-9.28-9.94-18.56-20.29-25.21-32.3-19.55-35.43-39.76-72.77-41.83-114.08-1.47-27.29,4-54.38,9.38-80.89,5.73-29.05,14.54-51.27,35.96-72.47,32.16-32.1,72.84-53.81,109.35-79.82,29.02-20.56,57.34-44.42,71.32-78,15.03-32.76,21.34-68.67,24.8-104.34h0Z"/>
      </g>
      <path class="cls-16" d="m1026.31,577.88c-30.74-41.23-71.18-76.36-118.46-102.86-10.82,3.32-22.94,6.83-24.99,8.29-9.43,6.74-8.24,9.6-3.71,14.86,9.26,10.73,49.02,19.58,35.27,27.84-16.81,10.08-67.87,6.45-94.75-6.49,51.61,93.89,114.08,242.26,88.63,371.77,39.57-19.93,63.88-70.41,53.57-115.13-12.31-53.29,40.99-77.89,28.68-106.57-12.29-28.7-4.1-65.59,4.1-73.8,7.13-7.12-19.88-26.69-16.2-42.45.4-1.73,18.76,31.74,34.36,39.5,5.47,2.73,8.17-.26,12.99-5.57,1.06-1.16,1.07-4.65.51-9.39Zm-151.55-119.49c-.45-.22-.9-.44-1.34-.66-34.76-18.74-58.89-39.34-75.25-60.31-2.41,1.04-5.23,1.61-8.48,1.61-16.19,0-32.39-1.78-41.56,5.2,4.84,9.45,10.39,18.64,16.75,27.31,4.16,5.68,10.64,14.97,18.61,27.28,5.9.28,11.46.51,13.97-1.5,2.92-2.32,20.65,11.18,24.14,22.28.54,1.73-7.95,9.64-7.43,11.14,1.6,4.6,13.66,2.21,14.85,1.86,6.17-1.79,7.21-9.01,13-7.43,6.89,1.89-17.84-26.16-13-33.41,6.98-10.49,25.27,32.56,37.13,31.55,3.59-.3,8.7-11.51,13.65-22.62-1.67-.78-3.35-1.55-5.04-2.3Zm-106.31-166.41c-1.09.07-2.2.23-3.36.46-20.5,4.1-24.6,65.59-8.19,77.89,7.01,5.25,14.02-.72,20.7-8.01-10.22-24.89-11.67-49.16-9.15-70.34Z"/>
      <path class="cls-16" d="m1089.17,802.52c-11.58,95.5-60.32,181.2-145.57,238.66-12.78-25.02-9.27-70.35,9.82-79.04,24.82-11.3,42.79-27.56,45.82-46.22,3.02-18.68,36.51-36.24,50.75-53.08,14.22-16.85,6.03-37.35,28.35-56.71,5.03-4.37,8.49-5.09,10.83-3.61Z"/>
    </g>
    <g class="cls-15">
      <path class="cls-18" d="m746.78,897.66l-12.7-14.44-418.92-476.28c-2.3-2.61-6.28-2.87-8.89-.57l-7.26,6.38c-2.61,2.3-6.59,2.04-8.89-.57l-13.2-15c-2.3-2.61-2.04-6.59.57-8.89l39.68-34.9,82.95-72.96c2.61-2.3,6.59-2.04,8.89.57l13.2,15.01c2.3,2.61,2.04,6.59-.57,8.89-2.27,2-4.99,4.39-7.26,6.38-2.61,2.3-2.87,6.27-.57,8.88,141.24,160.47,318.28,357.14,332.97,577.5Z"/>
      <path class="cls-18" d="m224.52,116.72l-43.5,38.26c-27.13,23.86-29.8,65.58-5.94,92.71l104.71,119.05,98.65-86.77L235.47,117.42c-2.83-3.22-7.73-3.53-10.95-.7Zm17.17,123.04c-14.25,1.41-26.12-10.46-24.71-24.71,1.04-10.54,9.57-19.07,20.11-20.11,14.25-1.41,26.12,10.46,24.71,24.71-1.04,10.54-9.57,19.07-20.11,20.11Z"/>
    </g>
    <text class="cls-8" transform="translate(234.36 1214.51)"><tspan x="0" y="0">G</tspan><tspan class="cls-17" x="86.83" y="0">l</tspan><tspan x="137.17" y="0">o</tspan><tspan class="cls-12" x="225.65" y="0">b</tspan><tspan x="282.68" y="0">a</tspan><tspan class="cls-7" x="358.25" y="0">l </tspan><tspan x="439.68" y="0">Gourme</tspan><tspan class="cls-10" x="880.06" y="0">t</tspan></text>
    <path class="cls-9" d="m698.28,897.66l-12.7-14.44-423.08-481.01-16.72,14.7-21.52-24.46,44.41-39.06,87.68-77.12,21.52,24.47-16.72,14.7c141.9,161.33,322.29,359.7,337.13,582.22Z"/>
    <path class="cls-13" d="m361.15,315.44c141.9,161.33,322.29,359.7,337.13,582.22,0,0-92.12-226.44-154.42-315.78-44.99-64.52-183.83-255.32-183.83-255.32"/>
    <path class="cls-9" d="m181.86,111.59l-49.32,43.38c-27.13,23.87-29.8,65.59-5.94,92.71l104.71,119.05,98.65-86.77L181.86,111.59Zm9.05,128.28c-12.44,0-22.53-10.09-22.53-22.53s10.09-22.53,22.53-22.53,22.53,10.09,22.53,22.53-10.09,22.53-22.53,22.53Z"/>
  </g>
</svg>